<?xml version="1.0" standalone="no"?>
<!DOCTYPE svg PUBLIC "-//W3C//DTD SVG 20010904//EN"
 "http://www.w3.org/TR/2001/REC-SVG-20010904/DTD/svg10.dtd">
<svg version="1.0" xmlns="http://www.w3.org/2000/svg"
 width="1171.000000pt" height="1280.000000pt" viewBox="0 0 1171.000000 1280.000000"
 preserveAspectRatio="xMidYMid meet">
<g transform="translate(0.000000,1280.000000) scale(0.100000,-0.100000)"
fill="#000000" stroke="none">
<path d="M5686 11415 c-19 -50 -46 -444 -46 -671 0 -140 -17 -371 -31 -427
-14 -53 -41 -77 -86 -77 -28 0 -78 22 -193 85 -142 78 -212 106 -226 92 -14
-13 34 -81 131 -185 108 -115 123 -145 83 -162 -39 -16 -275 -39 -503 -50
-401 -19 -525 -33 -525 -59 0 -33 109 -45 652 -70 280 -13 391 -21 402 -30 9
-8 16 -25 16 -40 0 -21 -32 -57 -154 -176 -229 -222 -216 -245 57 -106 98 50
192 93 211 96 47 9 113 -26 131 -68 23 -57 45 -264 45 -430 0 -259 20 -427 49
-427 23 0 33 81 40 338 7 216 11 277 23 288 19 19 26 13 147 -133 235 -285
553 -559 901 -777 132 -83 438 -238 593 -301 108 -44 134 -63 107 -80 -55 -34
-528 -57 -736 -36 -127 13 -320 49 -438 81 -39 11 -79 20 -90 20 -18 0 -18 -1
-1 -20 9 -10 65 -35 124 -54 435 -145 885 -161 1351 -49 58 13 118 33 134 43
l29 18 -24 15 c-13 9 -87 38 -164 65 -479 167 -999 460 -1375 773 -245 204
-507 466 -537 536 -16 39 -4 106 24 134 10 10 48 26 85 35 l67 18 133 -67
c137 -69 174 -79 185 -51 9 25 -20 73 -97 159 -80 88 -94 114 -81 148 22 58
12 57 661 81 234 9 479 20 545 26 179 14 228 38 139 68 -55 19 -547 43 -814
40 -300 -3 -500 26 -500 74 0 6 37 49 83 97 168 175 186 201 139 201 -9 0 -96
-38 -194 -85 -97 -47 -186 -85 -197 -85 -43 0 -151 52 -165 79 -23 44 -36 211
-46 571 -5 190 -12 377 -15 415 -10 109 -32 163 -49 120z"/>
<path d="M5557 8853 c-264 -383 -551 -637 -947 -838 -163 -82 -183 -97 -151
-115 23 -12 217 -32 531 -54 347 -25 472 -29 505 -16 l29 11 -31 20 c-23 14
-108 33 -305 65 -150 25 -278 51 -285 57 -17 16 -9 25 71 82 257 181 448 400
577 660 55 111 73 175 49 175 -6 0 -25 -21 -43 -47z"/>
<path d="M5273 7369 c-337 -301 -710 -479 -1496 -714 -136 -41 -256 -81 -267
-88 -19 -13 -19 -14 -2 -30 29 -26 1021 -363 1126 -383 39 -7 46 4 19 28 -20
16 -261 120 -583 251 -167 68 -205 87 -205 103 0 15 14 23 60 37 563 170 887
322 1155 541 123 101 260 247 274 294 12 36 -8 26 -81 -39z"/>
<path d="M5830 7402 c-22 -23 -30 -40 -30 -67 0 -78 51 -125 135 -125 59 0 83
13 101 56 33 80 -22 154 -122 162 -49 4 -56 2 -84 -26z"/>
<path d="M6530 7403 c0 -27 74 -114 213 -249 142 -139 264 -235 422 -334 143
-89 144 -90 59 -90 -152 0 -263 -81 -240 -175 21 -83 196 -68 289 25 49 49 58
80 36 122 -6 11 -8 22 -6 25 3 2 58 -21 123 -52 257 -125 543 -216 799 -256
182 -28 174 -42 -65 -103 -409 -107 -800 -156 -1265 -161 -148 -2 -274 -4
-280 -4 -5 -1 1 -8 15 -15 55 -30 481 -51 755 -37 489 25 874 104 1360 278
181 65 230 87 221 102 -3 4 -112 11 -243 14 -233 6 -397 21 -558 53 -594 116
-1108 378 -1521 775 -56 55 -105 99 -108 99 -3 0 -6 -7 -6 -17z"/>
<path d="M6300 7032 c-50 -24 -76 -80 -60 -128 19 -56 60 -76 148 -72 71 3 75
5 108 41 37 40 42 72 19 116 -28 55 -145 79 -215 43z"/>
<path d="M5060 6477 c-112 -40 -104 -216 14 -288 23 -14 50 -19 105 -19 70 0
74 1 107 34 34 34 39 52 34 121 -4 52 -49 114 -106 143 -34 18 -116 23 -154 9z"/>
<path d="M5650 5772 c-97 -53 -107 -172 -21 -245 44 -37 93 -50 176 -45 62 3
80 8 117 34 76 53 85 144 21 209 -46 45 -82 58 -173 62 -70 4 -91 1 -120 -15z"/>
<path d="M4913 5633 c-23 -16 -103 -73 -178 -127 -431 -310 -950 -587 -1455
-776 -299 -112 -651 -217 -922 -275 -93 -20 -118 -35 -99 -59 20 -24 197 -122
319 -177 224 -99 506 -174 760 -200 164 -17 514 -6 667 20 177 30 253 56 231
78 -3 4 -68 -2 -143 -13 -203 -28 -565 -26 -758 4 -244 38 -481 108 -673 197
-134 63 -131 67 103 131 785 216 1514 599 2101 1106 51 44 94 88 97 99 7 25
-1 24 -50 -8z"/>
<path d="M6435 5287 c-130 -34 -203 -117 -175 -201 22 -66 92 -106 189 -106
184 0 335 127 274 232 -38 68 -177 103 -288 75z"/>
<path d="M7150 5252 c0 -15 35 -59 103 -129 44 -45 68 -77 64 -86 -3 -8 -36
-24 -74 -35 -138 -43 -231 -121 -240 -205 -10 -84 37 -120 152 -120 120 0 271
66 348 152 15 17 37 31 49 31 11 0 64 -27 118 -60 301 -186 662 -315 1050
-375 144 -23 514 -31 664 -15 70 7 122 8 127 3 14 -14 -24 -43 -171 -130 -276
-163 -509 -277 -854 -418 -189 -77 -238 -105 -184 -105 33 0 290 80 443 138
384 146 720 322 1085 570 189 128 230 160 230 178 0 21 -21 18 -180 -26 -303
-84 -562 -117 -850 -107 -673 24 -1316 271 -1784 686 -63 55 -96 74 -96 53z
m311 -285 c42 -28 46 -53 17 -97 -56 -82 -184 -150 -299 -158 -108 -7 -169 41
-135 107 64 124 319 214 417 148z"/>
<path d="M5865 4456 c-51 -23 -70 -52 -70 -107 0 -66 33 -100 102 -106 104
-10 172 73 131 161 -23 52 -106 78 -163 52z"/>
<path d="M5004 4261 c-40 -17 -64 -60 -64 -113 0 -43 4 -54 31 -79 73 -68 204
-41 228 46 12 45 -1 94 -34 125 -19 18 -39 24 -83 27 -31 1 -67 -1 -78 -6z"/>
<path d="M7452 3468 c2 -19 37 -40 183 -113 417 -210 847 -330 1340 -375 262
-24 693 -8 935 35 115 20 140 20 140 -4 0 -30 -329 -342 -544 -515 -463 -372
-931 -585 -1429 -651 -215 -28 -485 -16 -682 30 -150 34 -150 3 0 -40 154 -44
249 -57 465 -62 308 -7 531 27 828 128 509 174 978 511 1532 1103 91 97 169
186 174 197 19 42 -6 41 -205 -10 -364 -92 -560 -116 -974 -115 -322 0 -423 8
-685 55 -338 60 -730 186 -981 315 -47 24 -89 44 -93 44 -4 0 -6 -10 -4 -22z"/>
<path d="M4365 3381 c-447 -163 -615 -219 -955 -317 -667 -193 -1396 -335
-2077 -404 -106 -10 -202 -24 -213 -30 -18 -10 -19 -13 -6 -38 20 -38 282
-292 401 -388 750 -604 1715 -938 2699 -933 193 1 275 8 279 24 1 6 -68 12
-183 16 -693 24 -1311 177 -1915 474 -365 179 -679 390 -947 636 -81 74 -103
108 -80 123 5 3 103 17 218 31 924 115 1858 367 2689 725 135 58 168 77 160
90 -8 13 -11 13 -70 -9z"/>
<path d="M6524 3219 c-50 -15 -126 -71 -148 -109 -25 -42 -26 -132 -3 -176 46
-88 162 -126 281 -93 49 14 122 80 137 126 17 52 7 134 -21 173 -42 59 -174
101 -246 79z"/>
<path d="M4860 2685 c-166 -53 -213 -247 -86 -352 48 -39 96 -53 182 -53 111
0 193 48 229 132 41 100 -12 218 -118 263 -55 23 -153 28 -207 10z"/>
<path d="M3093 2489 c-117 -15 -196 -99 -196 -208 0 -119 88 -206 235 -231
123 -22 238 27 286 120 88 173 -92 348 -325 319z"/>
</g>
</svg>
